<svg width="900" height="520" viewBox="0 0 900 520" fill="none" xmlns="http://www.w3.org/2000/svg" role="img" aria-label="Evidencia de bitácora">
  <defs>
    <linearGradient id="bg" x1="0" y1="0" x2="900" y2="520" gradientUnits="userSpaceOnUse">
      <stop offset="0" stop-color="#07090F"/>
      <stop offset="1" stop-color="#10131B"/>
    </linearGradient>
    <linearGradient id="accent" x1="132" y1="99" x2="755" y2="444" gradientUnits="userSpaceOnUse">
      <stop offset="0" stop-color="#EF4444" stop-opacity="0.35"/>
      <stop offset="1" stop-color="#E5E7EB" stop-opacity="0.08"/>
    </linearGradient>
  </defs>

  <rect width="900" height="520" rx="24" fill="url(#bg)"/>
  <rect x="24" y="24" width="852" height="472" rx="20" stroke="#272B35" stroke-width="2"/>
  <rect x="58" y="58" width="784" height="404" rx="18" fill="url(#accent)" stroke="#3A3F4C"/>

  <path d="M98 115H274" stroke="#4B5563" stroke-width="2"/>
  <path d="M98 145H226" stroke="#4B5563" stroke-width="2"/>
  <path d="M802 375H672" stroke="#4B5563" stroke-width="2"/>
  <path d="M802 405H710" stroke="#4B5563" stroke-width="2"/>

  <g opacity="0.9">
    <circle cx="161" cy="407" r="4" fill="#EF4444"/>
    <circle cx="228" cy="407" r="4" fill="#9CA3AF"/>
    <circle cx="295" cy="407" r="4" fill="#F3F4F6"/>
    <path d="M161 407H228H295" stroke="#6B7280" stroke-width="1.5"/>
  </g>

  <g transform="translate(300 145)">
    <rect x="0" y="0" width="300" height="210" rx="20" fill="#0B0E15" stroke="#374151"/>
    <rect x="20" y="20" width="260" height="170" rx="14" fill="#121826" stroke="#4B5563"/>
    <circle cx="150" cy="105" r="36" stroke="#E5E7EB" stroke-width="4"/>
    <circle cx="150" cy="105" r="16" fill="#EF4444" fill-opacity="0.75"/>
    <rect x="98" y="62" width="104" height="16" rx="8" fill="#9CA3AF" fill-opacity="0.45"/>
    <rect x="96" y="142" width="108" height="12" rx="6" fill="#9CA3AF" fill-opacity="0.35"/>
  </g>

  <path d="M82 300H214L258 254H370" stroke="#EF4444" stroke-opacity="0.6" stroke-width="2"/>
  <path d="M530 248H646L690 286H818" stroke="#D1D5DB" stroke-opacity="0.5" stroke-width="2"/>
  <circle cx="82" cy="300" r="5" fill="#EF4444"/>
  <circle cx="214" cy="300" r="5" fill="#9CA3AF"/>
  <circle cx="370" cy="254" r="5" fill="#E5E7EB"/>
  <circle cx="530" cy="248" r="5" fill="#EF4444"/>
  <circle cx="690" cy="286" r="5" fill="#9CA3AF"/>
  <circle cx="818" cy="286" r="5" fill="#E5E7EB"/>

  <text x="450" y="438" text-anchor="middle" fill="#F3F4F6" font-family="Inter, Segoe UI, Arial" font-size="32" font-weight="700">
    Evidencia de bitácora
  </text>
  <text x="450" y="468" text-anchor="middle" fill="#9CA3AF" font-family="Inter, Segoe UI, Arial" font-size="16">
    Registro visual del proceso de robótica
  </text>
</svg>
