<svg xmlns="http://www.w3.org/2000/svg" viewBox="0 0 900 520" role="img" aria-labelledby="title desc">
<title id="title">Evidencia de bitácora</title><desc id="desc">Placeholder SVG para evidencia de la bitácora LOBEX</desc>
<defs><linearGradient id="bg" x1="0" y1="0" x2="1" y2="1"><stop stop-color="#090b11"/><stop offset="1" stop-color="#141923"/></linearGradient><filter id="glow"><feGaussianBlur stdDeviation="5" result="blur"/><feMerge><feMergeNode in="blur"/><feMergeNode in="SourceGraphic"/></feMerge></filter></defs>
<rect width="900" height="520" rx="36" fill="url(#bg)"/><g opacity=".16" stroke="#fff"><path d="M0 110h900M0 220h900M0 330h900M0 440h900M150 0v520M300 0v520M450 0v520M600 0v520M750 0v520"/></g><rect x="72" y="70" width="756" height="380" rx="28" fill="#0f172a" stroke="#ef4444" stroke-width="4" opacity=".95"/><path d="M286 305h328l-37 74H323z" fill="#111827" stroke="#94a3b8" stroke-width="4"/><rect x="323" y="185" width="254" height="144" rx="18" fill="#1f2937" stroke="#ef4444" stroke-width="6"/><circle cx="450" cy="257" r="46" fill="none" stroke="#f8fafc" stroke-width="10"/><circle cx="450" cy="257" r="20" fill="#ef4444" filter="url(#glow)"/><path d="M348 185l24-42h156l24 42" fill="#1f2937" stroke="#ef4444" stroke-width="6"/><text x="450" y="110" text-anchor="middle" font-size="28" font-family="Arial Black, Arial, sans-serif" fill="#ef4444" letter-spacing="4">LOBEX 45881A</text><text x="450" y="430" text-anchor="middle" font-size="34" font-family="Arial Black, Arial, sans-serif" fill="#fff">Evidencia de bitácora</text><g fill="#ef4444"><circle cx="145" cy="126" r="8"/><circle cx="755" cy="126" r="8"/><circle cx="145" cy="394" r="8"/><circle cx="755" cy="394" r="8"/></g><g stroke="#ef4444" stroke-width="3" opacity=".7"><path d="M145 126h70v40M755 126h-70v40M145 394h70v-40M755 394h-70v-40"/></g></svg>